<?xml version="1.0" encoding="UTF-8"?>
<svg width="64px" height="64px" viewBox="0 0 64 64" version="1.1" xmlns="http://www.w3.org/2000/svg" xmlns:xlink="http://www.w3.org/1999/xlink">
    <!-- Generator: Sketch 45.2 (43514) - http://www.bohemiancoding.com/sketch -->
    <title>icons/beer_black</title>
    <desc>Created with Sketch.</desc>
    <defs></defs>
    <g id="Symbols" stroke="none" stroke-width="1" fill="none" fill-rule="evenodd">
        <g id="icons/beer_black" fill="#212529">
            <g id="beer">
                <path d="M54.8571429,18.2857143 C57.3333457,18.2857143 59.4761814,19.1904671 61.2857143,21 C63.0952471,22.8095329 64,24.9523686 64,27.4285714 L64,41.1428571 C64,43.61906 63.0952471,45.7618957 61.2857143,47.5714286 C59.4761814,49.3809614 57.3333457,50.2857143 54.8571429,50.2857143 L50.2857143,50.2857143 L50.2857143,61.7142857 C50.2857143,63.2381029 49.5238171,64 48,64 L11.4285714,64 C9.90475429,64 9.14285714,63.2381029 9.14285714,61.7142857 L9.14285714,29.8571429 C7.23808571,29.8571429 5.61905429,29.1666736 4.28571429,27.7857143 C2.95237429,26.404755 2.28571429,24.8095329 2.28571429,23 L2.28571429,15.2857143 L2.28571429,15.1428571 C0.761897143,13.4285629 0,11.4285829 0,9.14285714 C0,6.66665429 0.904752857,4.52381857 2.71428571,2.71428571 C4.52381857,0.904752857 6.66665429,0 9.14285714,0 C11.61906,0 13.8095143,0.952371429 15.7142857,2.85714286 C17.3333414,0.952371429 19.38094,0 21.8571429,0 C23.6666757,0 25.4285629,0.66666 27.1428571,2 C28.95239,0.66666 30.95237,0 33.1428571,0 C35.7142986,0 37.9047529,0.761897143 39.7142857,2.28571429 C41.42858,0.761897143 43.42856,0 45.7142857,0 C48.1904886,0 50.3333243,0.904752857 52.1428571,2.71428571 C53.95239,4.52381857 54.8571429,6.66665429 54.8571429,9.14285714 C54.8571429,10.7619129 54.3809571,12.2380886 53.4285714,13.5714286 C52.4761857,14.9047686 51.4285771,15.7142843 50.2857143,16 L50.2857143,18.2857143 L54.8571429,18.2857143 Z M42.2857143,38.8571429 C43.0476229,38.8571429 43.4285714,38.4761943 43.4285714,37.7142857 L43.4285714,30.8571429 C43.4285714,30.0952343 43.0476229,29.7142857 42.2857143,29.7142857 C41.5238057,29.7142857 41.1428571,30.0952343 41.1428571,30.8571429 L41.1428571,37.7142857 C41.1428571,38.1904786 41.3333314,38.5238086 41.7142857,38.7142857 C41.8095243,38.8095243 41.9999986,38.8571429 42.2857143,38.8571429 Z M43.2857143,28 C43.3809529,27.8095229 43.4285714,27.5238114 43.4285714,27.1428571 C43.4285714,26.7619029 43.2857157,26.52381 43,26.4285714 C42.8095229,26.3333329 42.5238114,26.2857143 42.1428571,26.2857143 C41.8571414,26.2857143 41.6190486,26.4761886 41.4285714,26.8571429 C41.2380943,27.2380971 41.1428571,27.5238086 41.1428571,27.7142857 C41.1428571,28.0000014 41.3333314,28.2380943 41.7142857,28.4285714 C41.9047629,28.52381 42.1904743,28.5714286 42.5714286,28.5714286 C42.8571443,28.5714286 43.0952371,28.3809543 43.2857143,28 Z M45.7142857,18.2857143 L45.7142857,13.7142857 L42.8571429,13.7142857 C42.38095,15.0476257 41.7619086,16.1428529 41,17 C39.0952286,19.3809643 36.4762071,20.5714286 33.1428571,20.5714286 C29.3333143,20.5714286 26.4285814,19.0000157 24.4285714,15.8571429 C23.5714243,16.1428586 22.71429,16.2857143 21.8571429,16.2857143 C20.2380871,16.2857143 18.7142929,15.8095286 17.2857143,14.8571429 C17.1904757,14.8571429 17.0714293,14.7619057 16.9285714,14.5714286 C16.7857136,14.3809514 16.6666671,14.2857143 16.5714286,14.2857143 C16.5714286,14.3809529 16.52381,14.4999993 16.4285714,14.6428571 C16.3333329,14.785715 16.2380957,14.9047614 16.1428571,15 C15.6666643,15.5714314 14.8571486,16.2380914 13.7142857,17 L13.7142857,21.5714286 L13.7142857,22.8571429 L25.1428571,22.8571429 C25.1428571,22.0952343 25.5238057,21.7142857 26.2857143,21.7142857 C27.0476229,21.7142857 27.4285714,22.0952343 27.4285714,22.8571429 L45.7142857,22.8571429 L45.7142857,18.2857143 Z M50.1428571,10.4285714 C50.2380957,10.1428557 50.2857143,9.71428857 50.2857143,9.14285714 C50.2857143,7.80951714 49.8571471,6.71429 49,5.85714286 C48.1428529,4.99999571 47.0476257,4.57142857 45.7142857,4.57142857 C44.4761843,4.57142857 43.3809571,5.04761429 42.4285714,6 C41.9523786,6.47619286 41.1904814,6.76190429 40.1428571,6.85714286 L39,6.85714286 C37.9523757,6.66666571 37.2857157,6.42857286 37,6.14285714 C35.9523757,5.09523286 34.6666743,4.57142857 33.1428571,4.57142857 C31.9999943,4.57142857 30.80953,4.99999571 29.5714286,5.85714286 L28.5714286,6.85714286 C28.5714286,6.95238143 28.52381,7.04761857 28.4285714,7.14285714 C27.9523786,7.61905 27.4285743,7.85714286 26.8571429,7.85714286 C26.38095,7.85714286 25.8571457,7.57143143 25.2857143,7 C25.1904757,6.90476143 25.0952386,6.785715 25,6.64285714 C24.9047614,6.49999929 24.8571429,6.38095286 24.8571429,6.28571429 C24.7619043,6.09523714 24.5238114,5.80952571 24.1428571,5.42857143 C23.5714257,4.85714 22.8095286,4.57142857 21.8571429,4.57142857 C20.9999957,4.57142857 19.8095314,5.33332571 18.2857143,6.85714286 C17.8095214,7.42857429 17.0000057,7.71428571 15.8571429,7.71428571 C14.71428,7.71428571 13.9047643,7.42857429 13.4285714,6.85714286 C12.0952314,5.33332571 10.6666743,4.57142857 9.14285714,4.57142857 C7.80951714,4.57142857 6.71429,4.99999571 5.85714286,5.85714286 C4.99999571,6.71429 4.57142857,7.80951714 4.57142857,9.14285714 C4.57142857,9.23809571 4.59523786,9.40476071 4.64285714,9.64285714 C4.69047643,9.88095357 4.71428571,10.0476186 4.71428571,10.1428571 C5.00000143,11.5714357 5.71428,12.5714257 6.85714286,13.1428571 L6.85714286,18 L6.85714286,23 C6.85714286,24.5238171 7.61904,25.2857143 9.14285714,25.2857143 L9.14285714,21.5714286 L9.14285714,18.2857143 L9.14285714,13.7142857 C10.5714357,13.7142857 11.7142814,13.1904814 12.5714286,12.1428571 C12.7619057,11.95238 12.95238,11.6666686 13.1428571,11.2857143 C13.7142886,10.3333286 14.2857114,9.80952429 14.8571429,9.71428571 C16.9523914,9.33333143 18.3809486,9.57142429 19.1428571,10.4285714 C19.8095271,11.2857186 20.71428,11.7142857 21.8571429,11.7142857 C22.1428586,11.7142857 22.4761886,11.6190486 22.8571429,11.4285714 C23.6190514,11.2380943 24.0476186,11.04762 24.1428571,10.8571429 C24.7142886,10.4761886 25.1904743,10.2857143 25.5714286,10.2857143 C26.6190529,10.2857143 27.2857129,10.7619 27.5714286,11.7142857 C27.6666671,11.8095243 27.7142857,11.9047614 27.7142857,12 C27.9047629,12.66667 28.0476186,13.0476186 28.1428571,13.1428571 C29.28572,15.0476286 30.95237,16 33.1428571,16 C35.1428671,16 36.6666614,15.2381029 37.7142857,13.7142857 C38.4761943,12.6666614 38.8571429,11.5238157 38.8571429,10.2857143 C38.8571429,9.90476 38.95238,9.61904857 39.1428571,9.42857143 C39.3333343,9.23809429 39.5238086,9.14285714 39.7142857,9.14285714 L40.1428571,9.14285714 L41.1428571,9.14285714 L48,9.14285714 C49.1428629,9.14285714 49.8571414,9.57142429 50.1428571,10.4285714 Z M59.4285714,41.1428571 L59.4285714,27.4285714 C59.4285714,26.0952314 59.0000043,25.0000043 58.1428571,24.1428571 C57.28571,23.28571 56.1904829,22.8571429 54.8571429,22.8571429 L50.2857143,22.8571429 L50.2857143,45.7142857 L54.8571429,45.7142857 C56.1904829,45.7142857 57.28571,45.2857186 58.1428571,44.4285714 C59.0000043,43.5714243 59.4285714,42.4761971 59.4285714,41.1428571 Z M18.2857143,19.4285714 C18.2857143,18.6666629 18.6666629,18.2857143 19.4285714,18.2857143 C20.19048,18.2857143 20.5714286,18.6666629 20.5714286,19.4285714 C20.5714286,20.19048 20.19048,20.5714286 19.4285714,20.5714286 C18.6666629,20.5714286 18.2857143,20.19048 18.2857143,19.4285714 Z M41.1428571,19.4285714 C41.1428571,18.6666629 41.5238057,18.2857143 42.2857143,18.2857143 C43.0476229,18.2857143 43.4285714,18.6666629 43.4285714,19.4285714 C43.4285714,20.19048 43.0476229,20.5714286 42.2857143,20.5714286 C41.5238057,20.5714286 41.1428571,20.19048 41.1428571,19.4285714 Z" id="ion-beer---Ionicons"></path>
            </g>
        </g>
    </g>
</svg>