<?xml version="1.0" encoding="UTF-8"?>
<svg width="64px" height="64px" viewBox="0 0 64 64" version="1.1" xmlns="http://www.w3.org/2000/svg" xmlns:xlink="http://www.w3.org/1999/xlink">
    <!-- Generator: Sketch 45.2 (43514) - http://www.bohemiancoding.com/sketch -->
    <title>brackets</title>
    <desc>Created with Sketch.</desc>
    <defs></defs>
    <g id="Other-Assets" stroke="none" stroke-width="1" fill="none" fill-rule="evenodd">
        <g id="brackets" fill-rule="nonzero">
            <path d="M64,51.2 C64,58.24 58.24,64 51.2,64 L12.8,64 C5.76,64 0,58.24 0,51.2 L0,12.8 C0,5.76 5.76,0 12.8,0 L51.2,0 C58.24,0 64,5.76 64,12.8 L64,51.2 L64,51.2 Z" id="Shape" fill="#212529"></path>
            <path d="M51.2,7.04 C54.37632,7.04 56.96,9.62368 56.96,12.8 L56.96,44.8 C56.96,47.97632 54.37632,50.56 51.2,50.56 L12.8,50.56 C9.62368,50.56 7.04,47.97632 7.04,44.8 L7.04,12.8 C7.04,9.62368 9.62368,7.04 12.8,7.04 L51.2,7.04" id="Shape" fill="#FFFFFF"></path>
            <path d="M51.2,7.04 C54.37632,7.04 56.96,9.62368 56.96,12.8 L56.96,44.8 C56.96,47.97632 54.37632,50.56 51.2,50.56 L12.8,50.56 C9.62368,50.56 7.04,47.97632 7.04,44.8 L7.04,12.8 C7.04,9.62368 9.62368,7.04 12.8,7.04 L51.2,7.04 L51.2,7.04 Z M51.2,0 L12.8,0 C5.76,0 0,5.76 0,12.8 L0,44.8 C0,51.84 5.76,57.6 12.8,57.6 L51.2,57.6 C58.24,57.6 64,51.84 64,44.8 L64,12.8 C64,5.76 58.24,0 51.2,0 L51.2,0 L51.2,0 Z" id="Shape" fill="#212529"></path>
            <polygon id="Shape" fill="#212529" points="49.92 13.44 49.92 44.16 33.92 44.16 33.92 36.48 42.88 36.48 42.88 20.48 33.92 20.48 33.92 13.44"></polygon>
            <polygon id="Shape" fill="#212529" points="30.08 13.44 30.08 20.48 21.12 20.48 21.12 36.48 30.08 36.48 30.08 44.16 14.08 44.16 14.08 13.44"></polygon>
        </g>
    </g>
</svg>