<?xml version="1.0" encoding="UTF-8"?>
<svg width="64px" height="64px" viewBox="0 0 64 64" version="1.1" xmlns="http://www.w3.org/2000/svg" xmlns:xlink="http://www.w3.org/1999/xlink">
    <!-- Generator: Sketch 45.2 (43514) - http://www.bohemiancoding.com/sketch -->
    <title>icons/github_white</title>
    <desc>Created with Sketch.</desc>
    <defs></defs>
    <g id="Symbols" stroke="none" stroke-width="1" fill="none" fill-rule="evenodd">
        <g id="icons/github_white" fill="#F8F9FA">
            <g id="github">
                <path d="M32,0.792 C14.32,0.792 0,15.12 0,32.792 C0,46.9333333 9.168,58.9253333 21.88,63.152 C23.48,63.4533333 24.0666667,62.464 24.0666667,61.6133333 C24.0666667,60.8533333 24.04,58.84 24.0266667,56.1733333 C15.1253333,58.104 13.248,51.88 13.248,51.88 C11.792,48.1866667 9.688,47.2 9.688,47.2 C6.78933333,45.216 9.912,45.256 9.912,45.256 C13.1253333,45.48 14.8133333,48.552 14.8133333,48.552 C17.6666667,53.4453333 22.304,52.032 24.1333333,51.2133333 C24.4213333,49.144 25.2453333,47.7333333 26.16,46.9333333 C19.0533333,46.1333333 11.584,43.3813333 11.584,31.12 C11.584,27.6266667 12.824,24.7733333 14.8773333,22.5333333 C14.5173333,21.7253333 13.4373333,18.472 15.1573333,14.064 C15.1573333,14.064 17.8373333,13.2053333 23.9573333,17.344 C26.5173333,16.632 29.2373333,16.28 31.9573333,16.264 C34.6773333,16.28 37.3973333,16.632 39.9573333,17.344 C46.0373333,13.2053333 48.7173333,14.064 48.7173333,14.064 C50.4373333,18.472 49.3573333,21.7253333 49.0373333,22.5333333 C51.0773333,24.7733333 52.3173333,27.6266667 52.3173333,31.12 C52.3173333,43.4133333 44.8373333,46.12 37.7173333,46.9066667 C38.8373333,47.8666667 39.8773333,49.8293333 39.8773333,52.8266667 C39.8773333,57.1093333 39.8373333,60.5493333 39.8373333,61.5893333 C39.8373333,62.4293333 40.3973333,63.4293333 42.0373333,63.1093333 C54.84,58.912 64,46.912 64,32.792 C64,15.12 49.672,0.792 32,0.792" id="Shape"></path>
            </g>
        </g>
    </g>
</svg>