<?xml version="1.0" encoding="UTF-8"?>
<svg width="64px" height="64px" viewBox="0 0 64 64" version="1.1" xmlns="http://www.w3.org/2000/svg" xmlns:xlink="http://www.w3.org/1999/xlink">
    <!-- Generator: Sketch 45.2 (43514) - http://www.bohemiancoding.com/sketch -->
    <title>icons/instagram_white</title>
    <desc>Created with Sketch.</desc>
    <defs></defs>
    <g id="Symbols" stroke="none" stroke-width="1" fill="none" fill-rule="evenodd">
        <g id="icons/instagram_white" fill="#F8F9FA">
            <g id="instagram">
                <path d="M32,0 C23.308,0 22.22,0.04 18.808,0.192 C15.4,0.352 13.08,0.888 11.04,1.68 C8.936,2.496 7.148,3.592 5.372,5.372 C3.592,7.148 2.492,8.932 1.68,11.04 C0.888,13.08 0.348,15.4 0.192,18.808 C0.032,22.22 0,23.308 0,32 C0,40.692 0.04,41.78 0.192,45.192 C0.352,48.6 0.888,50.924 1.68,52.96 C2.496,55.064 3.592,56.852 5.372,58.628 C7.148,60.408 8.932,61.508 11.04,62.32 C13.08,63.112 15.4,63.652 18.808,63.808 C22.22,63.968 23.308,64 32,64 C40.692,64 41.78,63.96 45.192,63.808 C48.6,63.648 50.924,63.112 52.96,62.32 C55.064,61.504 56.852,60.408 58.628,58.628 C60.408,56.852 61.508,55.068 62.32,52.96 C63.112,50.92 63.652,48.6 63.808,45.192 C63.968,41.78 64,40.692 64,32 C64,23.308 63.96,22.22 63.808,18.808 C63.648,15.4 63.112,13.076 62.32,11.04 C61.504,8.936 60.408,7.148 58.628,5.372 C56.852,3.592 55.068,2.492 52.96,1.68 C50.92,0.888 48.6,0.348 45.192,0.192 C41.78,0.032 40.692,0 32,0 Z M32,5.76 C40.544,5.76 41.56,5.8 44.932,5.952 C48.052,6.096 49.744,6.616 50.872,7.056 C52.368,7.636 53.432,8.328 54.552,9.448 C55.672,10.568 56.364,11.632 56.944,13.128 C57.384,14.256 57.904,15.948 58.048,19.068 C58.2,22.444 58.236,23.456 58.236,32 C58.236,40.544 58.196,41.56 58.036,44.932 C57.876,48.052 57.356,49.744 56.916,50.872 C56.316,52.368 55.636,53.432 54.516,54.552 C53.396,55.672 52.316,56.364 50.836,56.944 C49.716,57.384 47.996,57.904 44.876,58.048 C41.476,58.2 40.476,58.236 31.916,58.236 C23.356,58.236 22.356,58.196 18.956,58.036 C15.836,57.876 14.116,57.356 12.996,56.916 C11.476,56.316 10.436,55.636 9.316,54.516 C8.196,53.396 7.476,52.316 6.916,50.836 C6.476,49.716 5.956,47.996 5.796,44.876 C5.676,41.516 5.636,40.476 5.636,31.956 C5.636,23.436 5.676,22.396 5.796,18.996 C5.956,15.876 6.476,14.156 6.916,13.036 C7.476,11.516 8.196,10.476 9.316,9.356 C10.436,8.236 11.476,7.516 12.996,6.956 C14.116,6.516 15.796,5.996 18.916,5.836 C22.316,5.716 23.316,5.676 31.876,5.676 L32,5.76 Z M32,15.568 C22.92,15.568 15.568,22.928 15.568,32 C15.568,41.08 22.928,48.432 32,48.432 C41.08,48.432 48.432,41.072 48.432,32 C48.432,22.92 41.072,15.568 32,15.568 Z M32,42.668 C26.108,42.668 21.332,37.892 21.332,32 C21.332,26.108 26.108,21.332 32,21.332 C37.892,21.332 42.668,26.108 42.668,32 C42.668,37.892 37.892,42.668 32,42.668 Z M52.92,14.92 C52.92,17.04 51.2,18.76 49.08,18.76 C46.96,18.76 45.24,17.04 45.24,14.92 C45.24,12.8 46.96,11.08 49.08,11.08 C51.2,11.08 52.92,12.8 52.92,14.92 Z" id="Shape"></path>
            </g>
        </g>
    </g>
</svg>