<?xml version="1.0" encoding="UTF-8"?>
<svg width="64px" height="64px" viewBox="0 0 64 64" version="1.1" xmlns="http://www.w3.org/2000/svg" xmlns:xlink="http://www.w3.org/1999/xlink">
    <!-- Generator: Sketch 45.2 (43514) - http://www.bohemiancoding.com/sketch -->
    <title>icons/medium_white</title>
    <desc>Created with Sketch.</desc>
    <defs></defs>
    <g id="Symbols" stroke="none" stroke-width="1" fill="none" fill-rule="evenodd">
        <g id="icons/medium_white" fill="#F8F9FA">
            <path d="M21.3214405,15.4955458 C21.3214405,15.4598315 21.2500119,15.3526887 21.2142976,15.3169744 L2.96429764,6.17411723 C2.46429764,5.92411723 1.96429764,5.63840294 1.39286906,5.63840294 C0.42858335,5.63840294 1.1920929e-05,6.45983151 1.1920929e-05,7.35268866 L1.1920929e-05,48.0669744 C1.1920929e-05,49.1384029 0.785726207,50.4241172 1.78572621,50.9241172 L18.3928691,59.2455458 C18.7500119,59.4241172 19.1428691,59.5312601 19.5714405,59.5312601 C20.7857262,59.5312601 21.3214405,58.4955458 21.3214405,57.3884029 L21.3214405,15.4955458 Z M23.6071548,19.1026887 L42.6785833,50.0312601 L23.6071548,40.5312601 L23.6071548,19.1026887 Z M64.0000119,19.7455458 L64.0000119,57.3884029 C64.0000119,58.5669744 63.3214405,59.3884029 62.1428691,59.3884029 C61.5357262,59.3884029 60.9642976,59.2098315 60.4642976,58.9241172 L44.7142976,51.0669744 L64.0000119,19.7455458 Z M63.8928691,15.4598315 C63.8928691,15.6026887 45.4285833,45.5669744 44.0000119,47.8526887 L30.0714405,25.2098315 L41.6428691,6.38840294 C42.0357262,5.7455458 42.7500119,5.38840294 43.5000119,5.38840294 C43.8214405,5.38840294 44.1428691,5.45983151 44.4285833,5.60268866 L63.7500119,15.2455458 C63.8214405,15.2812601 63.8928691,15.3526887 63.8928691,15.4598315 Z" id="medium---FontAwesome"></path>
        </g>
    </g>
</svg>