<?xml version="1.0" standalone="no"?>
<!DOCTYPE svg PUBLIC "-//W3C//DTD SVG 20010904//EN"
 "http://www.w3.org/TR/2001/REC-SVG-20010904/DTD/svg10.dtd">
<svg version="1.0" xmlns="http://www.w3.org/2000/svg"
 width="128.000000pt" height="128.000000pt" viewBox="0 0 128.000000 128.000000"
 preserveAspectRatio="xMidYMid meet">
<metadata>
Created by potrace 1.11, written by Peter Selinger 2001-2013
</metadata>
<g transform="translate(0.000000,128.000000) scale(0.100000,-0.100000)"
fill="#000000" stroke="none">
<path d="M220 1011 c-184 -196 -185 -545 -1 -741 54 -58 92 -66 135 -27 48 42
43 69 -31 167 -48 63 -74 142 -75 225 0 38 3 80 5 91 8 30 48 124 55 124 2 0
70 -65 150 -145 134 -134 147 -145 181 -145 49 0 81 33 81 82 0 33 -14 49
-176 212 -98 97 -186 183 -198 191 -40 29 -76 19 -126 -34z"/>
<path d="M932 1044 c-51 -35 -48 -87 8 -151 118 -133 125 -341 17 -483 -18
-24 -37 -50 -44 -59 -26 -35 -24 -72 7 -102 52 -53 108 -34 172 59 51 73 66
106 89 189 42 151 12 324 -77 458 -65 98 -119 126 -172 89z"/>
</g>
</svg>
