<?xml version="1.0" encoding="UTF-8" standalone="no"?><!DOCTYPE svg PUBLIC "-//W3C//DTD SVG 1.1//EN" "http://www.w3.org/Graphics/SVG/1.1/DTD/svg11.dtd"><svg width="100%" height="100%" viewBox="0 0 128 128" version="1.1" xmlns="http://www.w3.org/2000/svg" xmlns:xlink="http://www.w3.org/1999/xlink" xml:space="preserve" xmlns:serif="http://www.serif.com/" style="fill-rule:evenodd;clip-rule:evenodd;stroke-linejoin:round;stroke-miterlimit:1.41421;"><g><path d="M59.978,15.551c0,0 0.635,-0.814 0.988,-1.196c1.592,-1.725 3.35,-2.852 5.273,-3.383c1.924,-0.531 3.814,-0.796 5.671,-0.796c11.209,0 16.814,6.599 16.814,19.798l0,25.37c0,2.919 0.63,5.008 1.89,6.268c1.261,1.26 3.626,2.885 6.544,2.885l0.023,0l-17.809,0l0,-36.512c0,-5.505 -0.763,-9.518 -2.288,-12.039c-1.526,-2.52 -3.98,-3.78 -7.362,-3.78c-3.422,0 -7.765,1.128 -9.744,3.385Z"/><path d="M29.997,15.551c0,0 0.636,-0.814 0.989,-1.196c1.592,-1.725 3.349,-2.852 5.273,-3.383c1.923,-0.531 3.813,-0.796 5.671,-0.796c11.209,0 16.813,6.599 16.813,19.798l0,25.37c0,2.919 0.63,5.008 1.891,6.268c1.26,1.26 3.648,2.885 6.566,2.885l-17.809,0l0,-36.512c0,-5.505 -0.762,-9.518 -2.288,-12.039c-1.525,-2.52 -3.98,-3.78 -7.362,-3.78c-3.422,0 -7.765,1.128 -9.744,3.385Z"/><path d="M0,15.551c0,0 0.636,-0.814 0.989,-1.196c1.591,-1.725 3.349,-2.852 5.273,-3.383c1.923,-0.531 3.813,-0.796 5.67,-0.796c11.21,0 16.814,6.599 16.814,19.798l0,25.37c0,2.919 0.63,5.008 1.891,6.268c1.26,1.26 3.648,2.885 6.566,2.885l-17.809,0l0,-36.512c0,-5.505 -0.763,-9.518 -2.288,-12.039c-1.526,-2.52 -3.98,-3.78 -7.362,-3.78c-3.422,0 -7.765,1.128 -9.744,3.385Z"/><path d="M119.145,117.824c-5.04,0 -8.705,-1.144 -10.993,-3.432c-2.289,-2.289 -3.433,-6.285 -3.433,-11.989l0,-37.906l-7.561,0c4.709,0 8.291,-1.89 10.745,-3.681c2.587,-1.791 5.306,-4.974 6.168,-9.551l0,12.238l13.929,0l0,0.994l-13.929,0l0,41.587c0,6.898 2.62,10.347 7.86,10.347c1.725,0 3.748,-0.398 6.069,-1.194c-0.862,0.398 -3.814,2.587 -8.855,2.587Z" style="fill-rule:nonzero;"/></g></svg>