<?xml version="1.0" encoding="UTF-8"?>
<svg width="215px" height="217px" viewBox="0 0 215 217" version="1.1" xmlns="http://www.w3.org/2000/svg" xmlns:xlink="http://www.w3.org/1999/xlink">
    <!-- Generator: Sketch 47.1 (45422) - http://www.bohemiancoding.com/sketch -->
    <title>logo/eng</title>
    <desc>Created with Sketch.</desc>
    <defs></defs>
    <g id="Page-1" stroke="none" stroke-width="1" fill="none" fill-rule="evenodd">
        <g id="Products---03-Copy-2" transform="translate(-613.000000, -64.000000)">
            <g id="logo/eng" transform="translate(613.000000, 64.000000)">
                <g id="Group">
                    <path d="M58.2922535,116.199483 C26.0983309,116.199483 0,90.1873423 0,58.0997413 C0,26.0121402 26.0983309,0 58.2922535,0 C90.4861762,0 116.584507,26.0121402 116.584507,58.0997413 C116.584507,90.1873423 90.4861762,116.199483 58.2922535,116.199483 Z M58.2922535,84.5087145 C72.9258547,84.5087145 84.7887324,72.6850145 84.7887324,58.0997413 C84.7887324,43.514468 72.9258547,31.690768 58.2922535,31.690768 C43.6586523,31.690768 31.7957746,43.514468 31.7957746,58.0997413 C31.7957746,72.6850145 43.6586523,84.5087145 58.2922535,84.5087145 Z" id="Combined-Shape" fill="#869BB5"></path>
                    <ellipse id="Oval-Copy" fill="#212121" cx="156.707746" cy="58.0997413" rx="58.2922535" ry="58.0997413"></ellipse>
                    <path d="M107.5,89.260583 C101.747878,80.2558079 98.415493,69.5656494 98.415493,58.0997413 C98.415493,46.6338331 101.747878,35.9436746 107.5,26.9388995 C113.252122,35.9436746 116.584507,46.6338331 116.584507,58.0997413 C116.584507,69.5656494 113.252122,80.2558079 107.5,89.260583 L107.5,89.260583 Z" id="Combined-Shape" fill="#DB4764"></path>
                </g>
                <path d="M18.3321291,135.991843 L18.3321291,139.625331 C16.559506,138.786834 14.1338112,137.622254 10.3086771,137.622254 C6.99667073,137.622254 4.66427189,139.299249 4.66427189,142.233989 C4.66427189,144.563148 5.6438794,146.05381 8.58270195,147.870555 C12.6410759,150.43263 20.4312881,152.808372 20.4312881,159.423184 C20.4312881,163.941753 17.7257054,167.202576 13.0142598,168.367156 C9.0958297,169.298819 3.35812853,168.693238 1.44556148,167.99449 C-0.886837372,167.155993 -0.187117718,163.569088 2.05198518,164.407585 C4.80421582,165.432415 10.588565,167.016243 13.8072754,164.454168 C14.9268268,163.569088 15.9997303,162.031843 15.9997303,160.028766 C15.9997303,155.230698 10.0287892,154.299034 4.75756784,150.525796 C2.47181697,148.895385 0.326010029,146.240143 0.326010029,143.11907 C0.326010029,137.529088 4.71091986,134.873846 10.9617488,134.873846 C14.0871632,134.873846 16.6994499,135.572594 18.3321291,135.991843 Z M35.4052887,168.506905 C28.8745719,168.273989 23.6033505,163.662254 23.6033505,155.743113 C23.6033505,148.476136 28.4080922,144.656315 34.9388089,144.656315 C39.8834945,144.656315 44.968124,148.196637 44.968124,154.3922 L44.968124,157.187191 L27.9416124,157.187191 C28.4080922,162.125009 31.3002667,165.385832 36.5248402,165.898247 C37.4577997,165.991413 40.4432702,165.94483 43.1022049,164.826834 C44.3617003,164.267835 45.2013639,166.317496 43.7552766,167.016243 C41.4695257,168.087657 39.0904789,168.646655 35.4052887,168.506905 Z M34.798865,147.032057 C31.6734505,147.032057 28.4080922,149.221467 27.9416124,154.3922 L40.7698061,154.3922 C40.7231581,148.709052 37.7843355,147.032057 34.798865,147.032057 Z M59.7555327,168.926154 C53.084872,168.926154 48.3267783,164.733667 48.3267783,157.140608 C48.3267783,150.618962 52.0586165,145.075564 59.6622367,145.075564 C66.7993772,145.075564 71.184287,149.827048 71.184287,157.094025 C71.184287,164.221252 66.8926732,168.926154 59.7555327,168.926154 Z M52.7116882,157.140608 C52.7116882,161.84551 54.5776072,166.364079 59.8021807,166.364079 C64.7468662,166.364079 66.7060812,161.752343 66.7060812,157.094025 C66.7060812,152.435707 64.8401622,147.637639 59.6155887,147.637639 C54.5776072,147.637639 52.7116882,152.202791 52.7116882,157.140608 Z M96.5607865,147.777388 L96.5607865,168.460322 L92.5490605,168.460322 L92.5490605,163.429338 C92.0825807,165.758497 89.376998,168.926154 84.8054963,168.926154 C79.7675148,168.926154 76.9219882,165.851664 76.9686362,160.121932 L76.9686362,151.643792 C76.9686362,150.013381 77.0152842,148.895385 75.9423807,148.150054 C75.4759009,147.823971 74.8694772,147.637639 74.2630535,147.637639 C73.4700379,147.591055 72.9569102,147.125224 72.9569102,146.519642 C72.9569102,145.960644 73.5166859,145.541395 74.1231096,145.541395 L78.6946113,145.541395 C80.1406986,145.541395 80.9803622,146.705975 80.9803622,147.777388 L80.9803622,160.121932 C80.9803622,162.497674 81.4934899,165.665331 85.5985119,165.665331 C90.0300697,165.665331 92.5490605,160.867263 92.5490605,157.094025 L92.5490605,151.643792 C92.5490605,150.013381 92.5957085,148.895385 91.522805,148.150054 C91.0563252,147.823971 90.4499015,147.637639 89.8434778,147.637639 C89.0504622,147.591055 88.5373345,147.125224 88.5373345,146.519642 C88.5373345,145.960644 89.0971102,145.541395 89.7035339,145.541395 L94.2750356,145.541395 C95.7211229,145.541395 96.5607865,146.705975 96.5607865,147.777388 Z M108.176133,137.109839 L108.176133,168.460322 L104.117759,168.460322 L104.117759,140.92966 C104.117759,139.345832 104.164407,138.227835 103.091503,137.482504 C102.625024,137.156422 101.878656,136.923506 101.272232,136.923506 C100.479217,136.876923 99.9660888,136.457674 99.9660888,135.852093 C99.9660888,135.293095 100.525865,134.873846 101.132288,134.873846 L105.890382,134.873846 C107.336469,134.873846 108.176133,136.038426 108.176133,137.109839 Z M136.444807,140.091163 L136.444807,149.640716 L141.156252,149.640716 C143.675243,149.640716 148.713225,149.920215 148.713225,143.910984 C148.713225,139.90483 145.541162,138.274419 141.809324,138.274419 C141.062957,138.274419 138.170782,138.227835 137.704302,138.367585 C137.05123,138.600501 136.444807,138.647084 136.444807,140.091163 Z M136.444807,152.435707 L136.444807,164.081503 C136.444807,165.013166 136.631399,165.572165 137.844246,165.618748 C138.357374,165.618748 140.876365,165.711914 141.855972,165.665331 C145.727754,165.572165 150.345904,164.267835 150.345904,159.376601 C150.345904,152.668623 144.561555,152.435707 141.156252,152.435707 L136.444807,152.435707 Z M129.261018,137.622254 C128.514651,137.529088 128.141467,137.063256 128.094819,136.550841 C128.048171,135.991843 128.654595,135.526011 129.167722,135.526011 L142.229156,135.526011 C146.007642,135.526011 153.331374,136.457674 153.331374,143.491735 C153.331374,148.615886 149.459592,150.665546 147.640321,150.898462 C149.599536,151.271127 154.964054,152.435707 154.964054,159.376601 C154.964054,166.596995 148.013505,168.460322 141.90262,168.460322 L132.293137,168.460322 L132.293137,141.628408 C132.293137,139.392415 132.059897,138.88 131.173585,138.227835 C130.84705,137.994919 129.91409,137.71542 129.261018,137.622254 Z M160.795051,168.460322 L160.795051,151.830125 C160.795051,149.640716 160.795051,148.755635 159.815443,148.150054 C159.348963,147.870555 158.602596,147.684222 157.996172,147.684222 C157.203157,147.637639 156.690029,147.125224 156.690029,146.519642 C156.690029,145.960644 157.249805,145.541395 157.856228,145.541395 L162.567674,145.541395 C164.013761,145.541395 164.853425,146.705975 164.853425,147.777388 L164.853425,168.460322 L160.795051,168.460322 Z M159.302316,138.227835 C159.302316,136.597424 160.655107,135.246512 162.287786,135.246512 C163.920465,135.246512 165.273257,136.597424 165.273257,138.227835 C165.273257,139.858247 163.920465,141.209159 162.287786,141.209159 C160.655107,141.209159 159.302316,139.858247 159.302316,138.227835 Z M176.935251,137.063256 L176.935251,154.252451 L186.731326,145.587979 L191.25618,145.587979 L180.527145,155.184114 L192.795563,168.460322 L187.617638,168.460322 L176.935251,157.000859 L176.935251,168.460322 L172.876877,168.460322 L172.876877,140.92966 C172.876877,139.345832 172.923525,138.227835 171.850621,137.482504 C171.384142,137.156422 170.637774,136.923506 170.03135,136.923506 C169.238335,136.876923 168.725207,136.457674 168.725207,135.852093 C168.725207,135.293095 169.284983,134.873846 169.891406,134.873846 L174.6495,134.873846 C176.095587,134.873846 176.935251,136.038426 176.935251,137.063256 Z M205.437165,168.506905 C198.906448,168.273989 193.635227,163.662254 193.635227,155.743113 C193.635227,148.476136 198.439968,144.656315 204.970685,144.656315 C209.915371,144.656315 215,148.196637 215,154.3922 L215,157.187191 L197.973488,157.187191 C198.439968,162.125009 201.332143,165.385832 206.556716,165.898247 C207.489676,165.991413 210.475146,165.94483 213.134081,164.826834 C214.393576,164.267835 215.23324,166.317496 213.787153,167.016243 C211.501402,168.087657 209.122355,168.646655 205.437165,168.506905 Z M204.830741,147.032057 C201.705327,147.032057 198.439968,149.221467 197.973488,154.3922 L210.801682,154.3922 C210.755034,148.709052 207.816212,147.032057 204.830741,147.032057 Z" id="Seoul-Bike" fill="#212121"></path>
                <path d="M135.607968,191.873126 L130.936414,191.873126 L130.936414,200.641538 C130.936414,201.126747 131.178643,201.369351 131.593892,201.369351 L135.780988,201.369351 L135.780988,193.50204 C135.780988,192.635596 135.780988,192.150388 135.607968,191.873126 Z M151.110605,186.050623 L151.110605,195.442875 L155.955179,195.442875 C156.543449,195.442875 157.027906,195.962741 157.027906,196.725212 C157.027906,197.383709 156.543449,197.903576 155.989783,197.903576 L151.110605,197.903576 L151.110605,211.073523 C151.110605,213.326278 150.245503,214.504641 148.895943,214.504641 L148.169256,214.504641 L148.169256,188.130088 C148.169256,186.778435 147.546383,186.535831 146.439051,186.327885 C145.366324,186.154596 144.916471,185.808018 144.916471,185.288152 C144.916471,184.664312 145.539345,184.317735 146.231427,184.317735 L149.553421,184.317735 C150.453127,184.317735 151.110605,185.184179 151.110605,186.050623 Z M130.521165,203.830052 C129.55225,203.830052 127.925857,203.414159 127.925857,201.438667 L127.925857,193.467383 C127.925857,191.873126 127.960461,191.49189 127.233775,191.318602 C126.714714,191.214628 126.195652,190.972024 126.195652,190.382842 C126.195652,189.655029 126.85313,189.377767 127.406796,189.377767 L143.80914,189.377767 C144.258993,189.377767 144.847263,190.174896 144.847263,190.694762 C144.847263,191.249286 144.328201,191.873126 143.912952,191.873126 L138.722337,191.873126 L138.722337,200.641538 C138.722337,201.126747 138.99917,201.369351 139.483627,201.369351 L144.397409,201.369351 C145.089491,201.369351 145.539345,202.027849 145.539345,202.582373 C145.539345,203.136897 145.089491,203.830052 144.432014,203.830052 L130.521165,203.830052 Z M164.917642,191.04134 L178.205616,191.04134 L178.205616,188.338035 L165.609724,188.338035 C165.125266,188.338035 164.536996,187.818168 164.536996,187.090355 C164.536996,186.3972 165.090662,185.877334 165.609724,185.877334 L179.797405,185.877334 C180.697112,185.877334 181.216173,186.501173 181.216173,187.471591 L181.216173,191.561206 C181.216173,192.600939 180.627903,193.467383 179.58978,193.467383 L168.62028,193.467383 L168.62028,195.442875 C168.62028,196.032057 168.827905,196.274661 169.346966,196.274661 L181.146965,196.274661 C181.769839,196.274661 182.323504,196.898501 182.323504,197.52234 C182.323504,198.076864 181.769839,198.700704 181.112361,198.700704 L167.789782,198.700704 C166.440222,198.700704 165.644328,197.799602 165.644328,196.413292 L165.644328,194.368484 C165.644328,193.398067 165.332891,193.190121 164.640809,192.947516 C164.294768,192.843543 163.671894,192.704912 163.671894,192.046415 C163.671894,191.283944 164.363976,191.04134 164.917642,191.04134 Z M159.830839,201.265378 L186.960454,201.265378 C187.756348,201.265378 188.171598,201.993191 188.171598,202.4784 C188.171598,203.032924 187.721744,203.691421 186.960454,203.691421 L159.830839,203.691421 C159.138757,203.691421 158.619695,202.998266 158.619695,202.443742 C158.619695,201.889218 159.138757,201.265378 159.830839,201.265378 Z M165.92116,211.038866 C165.92116,207.781037 168.966321,205.043074 173.464855,205.043074 C177.859575,205.043074 180.93934,207.642405 180.93934,211.038866 C180.93934,214.400668 177.928784,217 173.464855,217 C168.862509,217 165.92116,214.331353 165.92116,211.038866 Z M168.966321,211.038866 C168.966321,212.9797 170.904151,214.539299 173.464855,214.539299 C175.852538,214.539299 177.894179,212.9797 177.894179,211.038866 C177.894179,209.167347 175.921746,207.503774 173.464855,207.503774 C170.869547,207.503774 168.966321,209.132689 168.966321,211.038866 Z M189.936407,196.586581 C189.936407,192.462308 193.362213,189.100505 197.687725,189.100505 C202.013238,189.100505 205.369836,192.462308 205.369836,196.586581 C205.369836,200.814827 202.013238,204.003341 197.687725,204.003341 C193.293005,204.003341 189.936407,200.676196 189.936407,196.586581 Z M193.050776,196.586581 C193.050776,199.463175 195.02321,201.507982 197.687725,201.507982 C200.352241,201.507982 202.290071,199.463175 202.290071,196.586581 C202.290071,193.779302 200.283033,191.630522 197.687725,191.630522 C195.02321,191.630522 193.050776,193.744645 193.050776,196.586581 Z M214.332298,186.015965 L214.332298,211.108181 C214.332298,213.395593 213.467196,214.539299 212.117636,214.539299 L211.39095,214.539299 L211.39095,188.09543 C211.39095,186.743778 210.837284,186.501173 209.729953,186.293227 C208.657226,186.119938 208.207372,185.77336 208.207372,185.253494 C208.207372,184.629654 208.86485,184.283077 209.487724,184.283077 L212.809718,184.283077 C213.67482,184.283077 214.332298,185.149521 214.332298,186.015965 Z" id="따릉이" fill="#212121"></path>
            </g>
        </g>
    </g>
</svg>