<?xml version="1.0" encoding="UTF-8"?>
<svg width="258px" height="126px" viewBox="0 0 258 126" version="1.1" xmlns="http://www.w3.org/2000/svg" xmlns:xlink="http://www.w3.org/1999/xlink">
    <!-- Generator: Sketch 47.1 (45422) - http://www.bohemiancoding.com/sketch -->
    <title>uikit_sticker</title>
    <desc>Created with Sketch.</desc>
    <defs></defs>
    <g id="Page-1" stroke="none" stroke-width="1" fill="none" fill-rule="evenodd" opacity="0.7">
        <g id="Products---03-Copy-2" transform="translate(-591.000000, -218.000000)">
            <g id="uikit_sticker" transform="translate(720.000000, 281.000000) rotate(13.000000) translate(-720.000000, -281.000000) translate(595.000000, 245.000000)">
                <path d="M245.071486,60 L250,54.1276596 L244.857203,48 L244.857203,72 L250,65.8723404 L245.071486,60 L245.071486,60 Z M245.071486,36 L250,30.1276596 L244.857203,24 L244.857203,48 L250,41.8723404 L245.071486,36 L245.071486,36 Z M245.071486,12 L250,6.12765957 L244.857203,2.55795385e-13 L244.857203,24 L250,17.8723404 L245.071486,12 L245.071486,12 Z M5.14279708,48 L5.14279708,72 L1.13686838e-13,65.8723404 L4.92851387,60 L1.13686838e-13,54.1276596 L5.14279708,48 Z M5.14279708,24 L5.14279708,48 L-2.27373675e-13,41.8723404 L4.92851387,36 L-2.27373675e-13,30.1276596 L5.14279708,24 Z M5.14279708,0 L5.14279708,24 L2.27373675e-13,17.8723404 L4.92851387,12 L2.27373675e-13,6.12765957 L5.14279708,0 Z M5.14279708,-5.68434189e-14 L244.857203,-5.68434189e-14 L244.857203,72 L5.14279708,72 L5.14279708,-5.68434189e-14 Z" id="Combined-Shape" fill-opacity="0.5" fill="#FFE066"></path>
                <path d="M117.035608,21.8788071 L117.035608,40.786802 C117.035608,42.9454423 116.551563,44.8375553 115.583457,46.463198 C114.615351,48.0888406 113.216626,49.3347038 111.38724,50.2008249 C109.557854,51.066946 107.394671,51.5 104.897626,51.5 C101.132029,51.5 98.2077255,50.5372875 96.1246291,48.6118338 C94.0415326,46.68638 93,44.0514127 93,40.7068528 L93,21.8788071 L99.1891691,21.8788071 L99.1891691,39.7674492 C99.1891691,42.0193641 99.6431705,43.6716318 100.551187,44.724302 C101.459203,45.7769723 102.961414,46.3032995 105.057864,46.3032995 C107.087547,46.3032995 108.559714,45.7736411 109.474407,44.7143084 C110.3891,43.6549757 110.846439,41.9927144 110.846439,39.7274746 L110.846439,21.8788071 L117.035608,21.8788071 Z M124.206231,51.1002538 L124.206231,21.8788071 L130.41543,21.8788071 L130.41543,51.1002538 L124.206231,51.1002538 Z M171.997033,51.1002538 L164.946588,51.1002538 L157.275223,38.7880711 L154.651335,40.6668782 L154.651335,51.1002538 L148.442136,51.1002538 L148.442136,21.8788071 L154.651335,21.8788071 L154.651335,35.2503173 L157.094955,31.8125 L165.026706,21.8788071 L171.916914,21.8788071 L161.70178,34.8105964 L171.997033,51.1002538 Z M174.941395,22.9781091 C174.941395,20.9926931 176.049692,20 178.26632,20 C180.482949,20 181.591246,20.9926931 181.591246,22.9781091 C181.591246,23.9241799 181.314172,24.6603717 180.760015,25.1867069 C180.205858,25.713042 179.374635,25.9762056 178.26632,25.9762056 C176.049692,25.9762056 174.941395,24.9768501 174.941395,22.9781091 Z M181.310831,51.1002538 L175.20178,51.1002538 L175.20178,28.7544416 L181.310831,28.7544416 L181.310831,51.1002538 Z M197.154303,46.6430838 C198.222557,46.6430838 199.504444,46.4099008 201,45.9435279 L201,50.4806472 C199.477737,51.1602191 197.60832,51.5 195.391691,51.5 C192.948059,51.5 191.168774,50.8837308 190.053783,49.6511739 C188.938793,48.4186169 188.381306,46.5698093 188.381306,44.1046954 L188.381306,33.3315355 L185.456973,33.3315355 L185.456973,30.7531726 L188.821958,28.714467 L190.58457,23.9974619 L194.490356,23.9974619 L194.490356,28.7544416 L200.759644,28.7544416 L200.759644,33.3315355 L194.490356,33.3315355 L194.490356,44.1046954 C194.490356,44.9708165 194.734048,45.610404 195.221439,46.0234772 C195.70883,46.4365503 196.353112,46.6430838 197.154303,46.6430838 Z" id="text" fill-opacity="0.5" fill="#FCC419"></path>
                <g id="sketch_logo" opacity="0.5" transform="translate(33.000000, 19.000000)" stroke-width="1">
                    <g id="sketch-symbol">
                        <polygon id="Shape" fill="#FDB300" fill-rule="nonzero" points="7.83870972 1.08595537 17.9637097 0 28.0887097 1.08595537 35.9274193 11.7614488 17.9637097 32.9835935 0 11.7614488"></polygon>
                        <g id="Group" transform="translate(0.000000, 11.761449)" fill-rule="nonzero">
                            <polygon id="Shape" fill="#EA6C00" points="7.27620305 0 17.9637259 21.2221517 0 0"></polygon>
                            <polygon id="Shape" fill="#EA6C00" transform="translate(26.945540, 10.611076) scale(-1, 1) translate(-26.945540, -10.611076) " points="25.2398803 0 35.9274032 21.2221517 17.9636773 0"></polygon>
                            <polygon id="Shape" fill="#FDAD00" points="7.27620305 0 28.6512487 0 17.9637259 21.2221517"></polygon>
                        </g>
                        <g id="Group" fill-rule="nonzero">
                            <polygon id="Shape" fill="#FDD231" points="17.9637259 0 7.8386802 1.08594101 7.27620305 11.761441"></polygon>
                            <polygon id="Shape" fill="#FDD231" transform="translate(23.307432, 5.880721) scale(-1, 1) translate(-23.307432, -5.880721) " points="28.6511935 0 18.5261479 1.08594101 17.9636707 11.761441"></polygon>
                            <polygon id="Shape" fill="#FDAD00" transform="translate(32.008063, 6.423691) scale(-1, 1) translate(-32.008063, -6.423691) " points="28.0886773 11.761441 35.9274489 1.08594101 35.3648803 11.761441"></polygon>
                            <polygon id="Shape" fill="#FDAD00" points="0 11.761441 7.8386802 1.08594101 7.27620305 11.761441"></polygon>
                            <polygon id="Shape" fill="#FEEEB7" points="17.9637259 0 7.27620305 11.761441 28.6512487 11.761441"></polygon>
                        </g>
                    </g>
                </g>
            </g>
        </g>
    </g>
</svg>