<?xml version="1.0" encoding="UTF-8"?>
<svg width="64px" height="64px" viewBox="0 0 64 64" version="1.1" xmlns="http://www.w3.org/2000/svg" xmlns:xlink="http://www.w3.org/1999/xlink">
    <!-- Generator: Sketch 45.2 (43514) - http://www.bohemiancoding.com/sketch -->
    <title>icons/baseball_white</title>
    <desc>Created with Sketch.</desc>
    <defs></defs>
    <g id="Symbols" stroke="none" stroke-width="1" fill="none" fill-rule="evenodd">
        <g id="icons/baseball_white" fill="#F8F9FA">
            <g id="baseball">
                <path d="M32,0 C40.8205569,0 48.3589431,3.12817385 54.6153846,9.38461538 C60.8718262,15.6410569 64,23.1794431 64,32 C64,33.6410338 63.9487185,34.8717908 63.8461538,35.6923077 C62.9230723,43.6923477 59.4359277,50.4102292 53.3846154,55.8461538 C47.3333031,61.2820785 40.2051692,64 32,64 C23.1794431,64 15.6410569,60.8718262 9.38461538,54.6153846 C3.12817385,48.3589431 0,40.8205569 0,32 C0,23.7948308 2.71792154,16.6666969 8.15384615,10.6153846 C13.5897708,4.56407231 20.3076523,1.07692769 28.3076923,0.153846154 C29.1282092,0.0512815385 30.3589662,0 32,0 Z M32.6153846,61.3846154 C33.7435954,61.3846154 34.5641,61.3333338 35.0769231,61.2307692 C34.8717938,59.1794769 34.6666677,57.6410308 34.4615385,56.6153846 L38.1538462,55.3846154 L37.3846154,53.0769231 L33.8461538,54.1538462 C33.1282015,51.79486 32.3076969,49.6410354 31.3846154,47.6923077 L34.4615385,45.6923077 L33.0769231,43.5384615 L30.1538462,45.5384615 C28.9230708,43.4871692 27.4871877,41.5897523 25.8461538,39.8461538 L28.4615385,37.2307692 L26.7692308,35.5384615 L24.1538462,38.1538462 C22.6153769,36.6153769 20.7692415,35.1794938 18.6153846,33.8461538 L20.6153846,31.0769231 L18.4615385,29.6923077 L16.4615385,32.6153846 C14.5128108,31.6923031 12.3589862,30.8717985 10,30.1538462 L11.0769231,26.7692308 L8.76923077,26 L7.53846154,29.5384615 C6.61538,29.3333323 5.02565231,29.1282062 2.76923077,28.9230769 C2.66666615,29.4359 2.61538462,30.2564046 2.61538462,31.3846154 C2.92307846,31.3846154 3.35897154,31.4102562 3.92307692,31.4615385 C4.48718231,31.5128208 4.99999769,31.5641023 5.46153846,31.6153846 C5.92307923,31.6666669 6.35897231,31.7435892 6.76923077,31.8461538 L5.69230769,35.3846154 L8,36.1538462 L9.23076923,32.4615385 C10.2564154,32.7692323 11.4358908,33.1794846 12.7692308,33.6923077 C13.0769246,33.7948723 13.4871769,33.9743577 14,34.2307692 C14.5128231,34.4871808 14.8717938,34.6666662 15.0769231,34.7692308 L12.9230769,37.8461538 L15.0769231,39.2307692 L17.2307692,36 C19.4871908,37.33334 21.2307631,38.6153785 22.4615385,39.8461538 L19.8461538,42.4615385 L21.5384615,44.1538462 L24.1538462,41.5384615 C25.79488,43.28206 27.1282,45.0769138 28.1538462,46.9230769 L24.9230769,49.0769231 L26.3076923,51.0769231 L29.3846154,49.0769231 C29.48718,49.3846169 29.6410246,49.7692285 29.8461538,50.2307692 C30.0512831,50.69231 30.2051277,51.02564 30.3076923,51.2307692 C30.92308,52.8718031 31.3333323,54.10256 31.5384615,54.9230769 L28,56 L28.7692308,58.4615385 L32.1538462,57.3846154 C32.1538462,57.48718 32.3076908,58.8205 32.6153846,61.3846154 Z M55.8461538,34.9230769 C58.0000108,35.3333354 59.7435831,35.5897431 61.0769231,35.6923077 C61.1794877,35.1794846 61.2307692,34.35898 61.2307692,33.2307692 C59.1794769,33.02564 57.6410308,32.8205138 56.6153846,32.6153846 L57.5384615,29.6923077 L55.2307692,28.9230769 L54.1538462,32 C52.7179415,31.6923062 51.5897477,31.3333354 50.7692308,30.9230769 C50.5641015,30.8205123 50.2051308,30.6410269 49.6923077,30.3846154 C49.1794846,30.1282038 48.7692323,29.9487185 48.4615385,29.8461538 L50.3076923,27.2307692 L48.1538462,25.8461538 L46.3076923,28.6153846 C44.4615292,27.4871738 42.7179569,26.2051354 41.0769231,24.7692308 L43.3846154,22.4615385 L41.5384615,20.6153846 L39.2307692,22.9230769 C37.7948646,21.4871723 36.5128262,19.7948815 35.3846154,17.8461538 L38.3076923,15.8461538 L36.9230769,13.8461538 L34.3076923,15.6923077 C33.7948692,14.8717908 33.3846169,14.0512862 33.0769231,13.2307692 C32.7692292,12.5128169 32.4102585,11.4359046 32,10 L35.2307692,8.92307692 L34.4615385,6.61538462 L31.3846154,7.53846154 C31.1794862,6.41025077 30.97436,4.82052308 30.7692308,2.76923077 C29.64102,2.76923077 28.8205154,2.82051231 28.3076923,2.92307692 C28.4102569,3.94872308 28.6666646,5.74357692 29.0769231,8.30769231 L25.0769231,9.53846154 L25.8461538,12 L29.6923077,10.7692308 C30.41026,13.2307815 31.2307646,15.3333246 32.1538462,17.0769231 L28.7692308,19.3846154 L30.1538462,21.3846154 L33.3846154,19.2307692 C34.6153908,21.1794969 35.9999923,23.0256323 37.5384615,24.7692308 L34.6153846,27.6923077 L36.3076923,29.3846154 L39.2307692,26.4615385 C40.6666738,27.8974431 42.5640908,29.3333262 44.9230769,30.7692308 L42.7692308,34 L44.7692308,35.3846154 L47.0769231,31.8461538 C49.23078,32.9743646 51.3333231,33.8461508 53.3846154,34.4615385 L52.1538462,38.3076923 L54.4615385,39.0769231 L55.8461538,34.9230769 Z" id="ion-ios-baseball---Ionicons"></path>
            </g>
        </g>
    </g>
</svg>