<?xml version="1.0" encoding="UTF-8"?>
<svg width="64px" height="64px" viewBox="0 0 64 64" version="1.1" xmlns="http://www.w3.org/2000/svg" xmlns:xlink="http://www.w3.org/1999/xlink">
    <!-- Generator: Sketch 45.2 (43514) - http://www.bohemiancoding.com/sketch -->
    <title>icons/email_black</title>
    <desc>Created with Sketch.</desc>
    <defs></defs>
    <g id="Symbols" stroke="none" stroke-width="1" fill="none" fill-rule="evenodd">
        <g id="icons/email_black" fill="#000000">
            <g id="email">
                <path d="M14.84,7 L24.04,16.96 L17.548,29.752 L31.256,27.296 L37.496,42.352 L64,7.592 L14.84,7 Z M13.14,28.568 L15.692,26.468 L12.4,27.508 L12.064,27.028 L13.424,25.708 L11.64,26.428 C4.832,29.072 0,35.672 0,43.392 C0,48.592 2.192,53.272 5.688,56.584 C4.188,53.944 3.328,50.892 3.328,47.636 C3.328,39.996 8.152,33.196 14.836,30.516 L15.676,28.476 L13.676,29.356 L13.116,28.596 L13.14,28.568 Z M24.78,23.316 L29.04,15.792 L54.104,9.92 L24.776,23.32 L24.78,23.316 Z" id="Shape"></path>
            </g>
        </g>
    </g>
</svg>