<?xml version="1.0" encoding="UTF-8"?>
<svg width="64px" height="64px" viewBox="0 0 64 64" version="1.1" xmlns="http://www.w3.org/2000/svg" xmlns:xlink="http://www.w3.org/1999/xlink">
    <!-- Generator: Sketch 45.2 (43514) - http://www.bohemiancoding.com/sketch -->
    <title>icons/email_white</title>
    <desc>Created with Sketch.</desc>
    <defs></defs>
    <g id="Symbols" stroke="none" stroke-width="1" fill="none" fill-rule="evenodd">
        <g id="icons/email_white" fill="#F8F9FA">
            <g id="email" transform="translate(0.000000, 7.000000)">
                <path d="M14.84,0 L24.04,9.96 L17.548,22.752 L31.256,20.296 L37.496,35.352 L64,0.592 L14.84,0 Z M13.14,21.568 L15.692,19.468 L12.4,20.508 L12.064,20.028 L13.424,18.708 L11.64,19.428 C4.832,22.072 0,28.672 0,36.392 C0,41.592 2.192,46.272 5.688,49.584 C4.188,46.944 3.328,43.892 3.328,40.636 C3.328,32.996 8.152,26.196 14.836,23.516 L15.676,21.476 L13.676,22.356 L13.116,21.596 L13.14,21.568 Z M24.78,16.316 L29.04,8.792 L54.104,2.92 L24.776,16.32 L24.78,16.316 Z" id="Shape"></path>
            </g>
        </g>
    </g>
</svg>