<?xml version="1.0" encoding="UTF-8"?>
<svg width="64px" height="64px" viewBox="0 0 64 64" version="1.1" xmlns="http://www.w3.org/2000/svg" xmlns:xlink="http://www.w3.org/1999/xlink">
    <!-- Generator: Sketch 45.2 (43514) - http://www.bohemiancoding.com/sketch -->
    <title>icons/js_white</title>
    <desc>Created with Sketch.</desc>
    <defs></defs>
    <g id="Symbols" stroke="none" stroke-width="1" fill="none" fill-rule="evenodd">
        <g id="icons/js_white" fill-rule="nonzero" fill="#F8F9FA">
            <g id="js">
                <path d="M0,0 L64,0 L64,64 L0,64 L0,0 Z M58.76,48.736 C58.292,45.816 56.388,43.364 50.748,41.076 C48.788,40.156 46.608,39.516 45.956,38.036 C45.716,37.156 45.676,36.676 45.836,36.156 C46.236,34.436 48.276,33.916 49.876,34.396 C50.916,34.716 51.876,35.516 52.476,36.796 C55.236,34.996 55.236,34.996 57.156,33.796 C56.436,32.676 56.076,32.196 55.596,31.716 C53.916,29.836 51.676,28.876 48.036,28.956 L46.156,29.196 C44.356,29.636 42.636,30.596 41.596,31.876 C38.556,35.316 39.436,41.316 43.116,43.796 C46.756,46.516 52.076,47.116 52.756,49.676 C53.396,52.796 50.436,53.796 47.516,53.436 C45.356,52.956 44.156,51.876 42.836,49.876 L37.956,52.676 C38.516,53.956 39.156,54.516 40.116,55.636 C44.756,60.316 56.356,60.076 58.436,52.956 C58.516,52.716 59.076,51.076 58.636,48.556 L58.76,48.736 Z M34.8,29.416 L28.808,29.416 C28.808,34.584 28.784,39.72 28.784,44.896 C28.784,48.184 28.952,51.2 28.416,52.124 C27.536,53.964 25.272,53.724 24.24,53.404 C23.184,52.884 22.648,52.164 22.028,51.124 C21.86,50.844 21.732,50.604 21.688,50.604 L16.82,53.604 C17.632,55.284 18.82,56.724 20.352,57.644 C22.632,59.004 25.696,59.444 28.904,58.724 C30.992,58.124 32.792,56.884 33.732,54.964 C35.092,52.484 34.804,49.444 34.792,46.044 C34.824,40.564 34.792,35.084 34.792,29.564 L34.8,29.416 Z" id="Shape"></path>
            </g>
        </g>
    </g>
</svg>