<?xml version="1.0" encoding="UTF-8"?>
<svg width="64px" height="64px" viewBox="0 0 64 64" version="1.1" xmlns="http://www.w3.org/2000/svg" xmlns:xlink="http://www.w3.org/1999/xlink">
    <!-- Generator: Sketch 45.2 (43514) - http://www.bohemiancoding.com/sketch -->
    <title>icons/twitter_white</title>
    <desc>Created with Sketch.</desc>
    <defs></defs>
    <g id="Symbols" stroke="none" stroke-width="1" fill="none" fill-rule="evenodd">
        <g id="icons/twitter_white">
            <g id="twitter" transform="translate(0.000000, 0.647059)">
                <rect id="Rectangle-Copy-2" x="0" y="0" width="64" height="64"></rect>
                <path d="M62.1562353,13.8315294 C59.9350588,14.8103529 57.5632941,15.4767059 55.0597647,15.7778824 C57.6084706,14.2456471 59.5698824,11.8249412 60.4922353,8.94117647 C58.1054118,10.3341176 55.4588235,11.3505882 52.6428235,11.9152941 C50.3915294,9.50588235 47.184,8 43.6225882,8 C36.8009412,8 31.2668235,13.5341176 31.2668235,20.3482353 C31.2668235,21.3270588 31.3797647,22.2682353 31.5868235,23.1717647 C21.3167059,22.6823529 12.2098824,17.7505882 6.11482353,10.2964706 C5.04564706,12.1072941 4.44329412,14.2155294 4.44329412,16.512 C4.44329412,20.8037647 6.62682353,24.5797647 9.93976471,26.7971765 C7.91435294,26.7331765 6.00564706,26.176 4.34164706,25.2536471 L4.34164706,25.4042353 C4.34164706,31.3901176 8.59576471,36.3896471 14.2541176,37.5265882 C13.2150588,37.8051765 12.1232941,37.9557647 10.9976471,37.9557647 C10.2070588,37.9557647 9.45411765,37.8804706 8.70117647,37.7374118 C10.2823529,42.6465882 14.8376471,46.2192941 20.2588235,46.3209412 C16.0423529,49.6338824 10.6964706,51.6065882 4.93647059,51.6065882 C3.95764706,51.6065882 2.97882353,51.5501176 2,51.4371765 C7.49647059,54.9383529 13.9717647,56.9863529 20.9741176,56.9863529 C43.7129412,56.9863529 56.1364706,38.1628235 56.1364706,21.8616471 C56.1364706,21.3345882 56.1364706,20.8075294 56.0988235,20.2804706 C58.5082353,18.5487059 60.6164706,16.3651765 62.2729412,13.8804706 L62.1562353,13.8315294 Z" id="Shape" fill="#F8F9FA"></path>
            </g>
        </g>
    </g>
</svg>